<?xml version="1.0" standalone="no"?>
<!DOCTYPE svg PUBLIC "-//W3C//DTD SVG 20010904//EN"
 "http://www.w3.org/TR/2001/REC-SVG-20010904/DTD/svg10.dtd">
<svg version="1.0" xmlns="http://www.w3.org/2000/svg"
 width="451.000000pt" height="451.000000pt" viewBox="0 0 451.000000 451.000000"
 preserveAspectRatio="xMidYMid meet">
<metadata>
Created by potrace 1.14, written by Peter Selinger 2001-2017
</metadata>
<g transform="translate(0.000000,451.000000) scale(0.100000,-0.100000)"
fill="#000000" stroke="none">
<path d="M1537 3505 c-2 -5 -3 -62 -3 -125 l1 -115 -125 0 -125 0 0 -115 c0
-63 -3 -120 -7 -125 -4 -7 -52 -10 -122 -10 -77 1 -117 -2 -118 -9 0 -6 -2
-58 -3 -116 -2 -58 -3 -110 -4 -116 -1 -6 -39 -10 -108 -9 -60 1 -115 0 -123
-2 -13 -4 -15 -66 -14 -491 1 -268 2 -492 3 -498 1 -7 80 -10 242 -9 153 0
243 -3 247 -10 11 -18 9 -254 -3 -247 -14 10 -226 9 -231 0 -3 -5 -11 -5 -17
-1 -13 8 -486 11 -488 3 -1 -3 -2 -59 -3 -125 l-2 -120 -119 -1 c-66 -1 -123
-2 -126 -3 -3 0 -5 -56 -4 -123 l0 -123 250 0 250 0 -1 133 c0 73 2 129 5 124
8 -10 222 -10 239 1 6 5 12 4 12 0 0 -5 55 -9 123 -8 l123 0 -1 -118 c0 -65 2
-121 5 -125 3 -4 340 -8 750 -8 l745 1 0 125 0 125 125 0 125 0 0 125 0 125
125 0 125 0 0 125 0 125 122 -1 c82 0 123 3 124 10 1 6 2 63 3 126 l1 115 125
0 125 0 0 132 c-1 89 3 129 10 124 5 -4 62 -7 125 -6 l115 0 0 250 -1 251 116
-1 c63 -1 120 0 125 2 6 2 10 51 10 126 l0 122 -120 0 c-66 1 -123 -3 -126 -8
-3 -4 -5 45 -4 110 1 65 0 125 -2 133 -4 13 -66 15 -501 15 l-498 0 1 125 0
125 -747 0 c-502 0 -749 -3 -751 -10z m1243 -997 c5 -6 5 -218 1 -238 -1 -3
-166 -5 -367 -5 -235 0 -368 -3 -373 -10 -4 -5 -7 -62 -7 -125 l1 -115 -125 0
-125 0 0 -125 0 -125 -250 0 -251 0 1 125 0 125 120 -1 c66 0 122 3 125 7 3 5
5 60 5 124 -1 73 3 115 10 116 5 1 118 2 250 3 l240 1 1 120 c1 66 2 122 3
125 2 8 735 6 741 -2z"/>
</g>
</svg>
